<svg xmlns="http://www.w3.org/2000/svg" xmlns:xlink="http://www.w3.org/1999/xlink" viewBox="0 0 360 360"><defs><style>.cls-1{fill:url(#Sfumatura_senza_nome_117);}.cls-2{fill:#fff;opacity:0.85;}</style><linearGradient id="Sfumatura_senza_nome_117" x1="9.5" y1="9.5" x2="353.36" y2="353.36" gradientUnits="userSpaceOnUse"><stop offset="0" stop-color="#02a9f5"/><stop offset="1" stop-color="#303da0"/></linearGradient></defs><title>icon</title><g id="Livello_2" data-name="Livello 2"><g id="Livello_1-2" data-name="Livello 1"><rect class="cls-1" width="360" height="360" rx="27.55" ry="27.55"/><path class="cls-2" d="M107.5,107.5v145A14.5,14.5,0,0,0,122,267H243.44a9.06,9.06,0,1,0,0-18.12H132.88a7.25,7.25,0,1,1,0-14.5H238a14.5,14.5,0,0,0,14.5-14.5V107.5A14.5,14.5,0,0,0,238,93H187.25v65.21a3.79,3.79,0,0,1-1.05,2.61,3.66,3.66,0,0,1-5.15,0c-.94-1-15.55-13.12-15.55-13.12s-14.61,12.14-15.55,13.12a3.66,3.66,0,0,1-5.15,0,3.8,3.8,0,0,1-1.05-2.61V93H122A14.5,14.5,0,0,0,107.5,107.5Z"/></g></g></svg>